<?xml version="1.0" encoding="utf-8"?>
<svg xmlns="http://www.w3.org/2000/svg" style="display:none">
  <symbol id="icon-menu" viewBox="0 0 24 24">
    <path d="M3 6h18v2H3zM3 11h18v2H3zM3 16h18v2H3z" fill="currentColor"/>
  </symbol>
  <symbol id="icon-close" viewBox="0 0 24 24">
    <path d="M18.3 5.71L12 12l6.3 6.29-1.42 1.42L10.59 13.4 4.29 19.71 2.87 18.29 9.17 12 2.87 5.71 4.29 4.29 10.59 10.6 16.88 4.29z" fill="currentColor"/>
  </symbol>
  <symbol id="icon-instagram" viewBox="0 0 24 24">
    <path d="M7 2h10a5 5 0 015 5v10a5 5 0 01-5 5H7a5 5 0 01-5-5V7a5 5 0 015-5zm5 6.2A4.8 4.8 0 1016.8 13 4.8 4.8 0 0012 8.2zm0 7.9A3.1 3.1 0 1115.1 13 3.1 3.1 0 0112 16.1zM18.5 6.2a1.1 1.1 0 11-1.1-1.1 1.1 1.1 0 011.1 1.1z" fill="currentColor"/>
  </symbol>
  <symbol id="icon-heart" viewBox="0 0 24 24">
    <path d="M12 21s-7-4.35-9-7.05C1.5 11.35 3 7 7.5 7 9.24 7 10.6 7.9 12 9.09 13.4 7.9 14.76 7 16.5 7 21 7 22.5 11.35 21 13.95 19 16.65 12 21 12 21z" fill="currentColor"/>
  </symbol>
</svg>
